<mxfile host="app.diagrams.net" modified="2022-06-09T12:27:30.113Z" agent="5.0 (Windows NT 10.0; Win64; x64) AppleWebKit/537.36 (KHTML, like Gecko) Chrome/101.0.4951.54 Safari/537.36" etag="hYl4Tpmmicp2LPowRQaA" version="19.0.3" type="github">
  <diagram id="OMN1OjxInWVunQNHdpiK" name="Page-1">
    <mxGraphModel dx="1422" dy="802" grid="1" gridSize="10" guides="1" tooltips="1" connect="1" arrows="1" fold="1" page="1" pageScale="1" pageWidth="827" pageHeight="1169" math="0" shadow="0">
      <root>
        <mxCell id="0" />
        <mxCell id="1" parent="0" />
        <mxCell id="wwHAEQClEzC2GXHCovWd-1" value="客户端" style="shape=umlLifeline;perimeter=lifelinePerimeter;whiteSpace=wrap;html=1;container=1;collapsible=0;recursiveResize=0;outlineConnect=0;" parent="1" vertex="1">
          <mxGeometry x="40" y="120" width="100" height="650" as="geometry" />
        </mxCell>
        <mxCell id="hCBLbBsB73LEwu_Nen_G-18" value="" style="html=1;verticalAlign=bottom;endArrow=block;rounded=0;" parent="wwHAEQClEzC2GXHCovWd-1" edge="1">
          <mxGeometry width="80" relative="1" as="geometry">
            <mxPoint x="50" y="100" as="sourcePoint" />
            <mxPoint x="300" y="100" as="targetPoint" />
          </mxGeometry>
        </mxCell>
        <mxCell id="wwHAEQClEzC2GXHCovWd-2" value="拦截器" style="shape=umlLifeline;perimeter=lifelinePerimeter;whiteSpace=wrap;html=1;container=1;collapsible=0;recursiveResize=0;outlineConnect=0;" parent="1" vertex="1">
          <mxGeometry x="300" y="120" width="100" height="680" as="geometry" />
        </mxCell>
        <mxCell id="hCBLbBsB73LEwu_Nen_G-5" value="" style="html=1;points=[];perimeter=orthogonalPerimeter;labelPosition=center;verticalLabelPosition=bottom;align=center;verticalAlign=top;" parent="wwHAEQClEzC2GXHCovWd-2" vertex="1">
          <mxGeometry x="45" y="90" width="10" height="80" as="geometry" />
        </mxCell>
        <mxCell id="hCBLbBsB73LEwu_Nen_G-6" value="校验appKey&lt;br&gt;和secretKey" style="text;html=1;align=center;verticalAlign=middle;resizable=0;points=[];autosize=1;strokeColor=none;fillColor=none;" parent="1" vertex="1">
          <mxGeometry x="360" y="190" width="80" height="30" as="geometry" />
        </mxCell>
        <mxCell id="hCBLbBsB73LEwu_Nen_G-7" value="证书签发" style="shape=umlLifeline;perimeter=lifelinePerimeter;whiteSpace=wrap;html=1;container=1;collapsible=0;recursiveResize=0;outlineConnect=0;" parent="1" vertex="1">
          <mxGeometry x="560" y="120" width="130" height="690" as="geometry" />
        </mxCell>
        <mxCell id="hCBLbBsB73LEwu_Nen_G-8" value="" style="html=1;points=[];perimeter=orthogonalPerimeter;labelPosition=center;verticalLabelPosition=bottom;align=center;verticalAlign=top;" parent="hCBLbBsB73LEwu_Nen_G-7" vertex="1">
          <mxGeometry x="60" y="145" width="10" height="80" as="geometry" />
        </mxCell>
        <mxCell id="hCBLbBsB73LEwu_Nen_G-24" value="" style="html=1;verticalAlign=bottom;endArrow=block;rounded=0;exitX=1.3;exitY=0.813;exitDx=0;exitDy=0;exitPerimeter=0;" parent="hCBLbBsB73LEwu_Nen_G-7" edge="1" source="hCBLbBsB73LEwu_Nen_G-8">
          <mxGeometry width="80" relative="1" as="geometry">
            <mxPoint x="80" y="210" as="sourcePoint" />
            <mxPoint x="310" y="210" as="targetPoint" />
          </mxGeometry>
        </mxCell>
        <mxCell id="hCBLbBsB73LEwu_Nen_G-14" value="根据appKey选择&lt;br&gt;相应的证书模板进行证书&lt;br&gt;签发" style="text;html=1;align=center;verticalAlign=middle;resizable=0;points=[];autosize=1;strokeColor=none;fillColor=none;" parent="hCBLbBsB73LEwu_Nen_G-7" vertex="1">
          <mxGeometry x="-10" y="90" width="150" height="50" as="geometry" />
        </mxCell>
        <mxCell id="hCBLbBsB73LEwu_Nen_G-11" value="CA" style="shape=umlLifeline;perimeter=lifelinePerimeter;whiteSpace=wrap;html=1;container=1;collapsible=0;recursiveResize=0;outlineConnect=0;" parent="1" vertex="1">
          <mxGeometry x="827" y="120" width="100" height="710" as="geometry" />
        </mxCell>
        <mxCell id="hCBLbBsB73LEwu_Nen_G-13" value="" style="html=1;points=[];perimeter=orthogonalPerimeter;" parent="hCBLbBsB73LEwu_Nen_G-11" vertex="1">
          <mxGeometry x="45" y="200" width="10" height="90" as="geometry" />
        </mxCell>
        <mxCell id="hCBLbBsB73LEwu_Nen_G-20" value="api证书签发请求" style="text;html=1;align=center;verticalAlign=middle;resizable=0;points=[];autosize=1;strokeColor=none;fillColor=none;" parent="1" vertex="1">
          <mxGeometry x="170" y="190" width="100" height="20" as="geometry" />
        </mxCell>
        <mxCell id="hCBLbBsB73LEwu_Nen_G-21" value="" style="html=1;verticalAlign=bottom;endArrow=block;rounded=0;" parent="1" edge="1">
          <mxGeometry width="80" relative="1" as="geometry">
            <mxPoint x="355" y="280" as="sourcePoint" />
            <mxPoint x="620" y="280" as="targetPoint" />
          </mxGeometry>
        </mxCell>
        <mxCell id="hCBLbBsB73LEwu_Nen_G-23" value="appkey和secretKey&lt;br&gt;-校验通过" style="text;html=1;align=center;verticalAlign=middle;resizable=0;points=[];autosize=1;strokeColor=none;fillColor=none;" parent="1" vertex="1">
          <mxGeometry x="414" y="240" width="120" height="30" as="geometry" />
        </mxCell>
        <mxCell id="hCBLbBsB73LEwu_Nen_G-25" value="远程调用CA进行证书签发" style="text;html=1;align=center;verticalAlign=middle;resizable=0;points=[];autosize=1;strokeColor=none;fillColor=none;" parent="1" vertex="1">
          <mxGeometry x="665" y="305" width="150" height="20" as="geometry" />
        </mxCell>
        <mxCell id="hCBLbBsB73LEwu_Nen_G-31" value="签发响应" style="text;html=1;align=center;verticalAlign=middle;resizable=0;points=[];autosize=1;strokeColor=none;fillColor=none;" parent="1" vertex="1">
          <mxGeometry x="710" y="410" width="60" height="20" as="geometry" />
        </mxCell>
        <mxCell id="hCBLbBsB73LEwu_Nen_G-33" value="签发响应" style="text;html=1;align=center;verticalAlign=middle;resizable=0;points=[];autosize=1;strokeColor=none;fillColor=none;" parent="1" vertex="1">
          <mxGeometry x="450" y="450" width="60" height="20" as="geometry" />
        </mxCell>
        <mxCell id="hCBLbBsB73LEwu_Nen_G-35" value="签发响应" style="text;html=1;align=center;verticalAlign=middle;resizable=0;points=[];autosize=1;strokeColor=none;fillColor=none;" parent="1" vertex="1">
          <mxGeometry x="190" y="500" width="60" height="20" as="geometry" />
        </mxCell>
        <mxCell id="kYCmp84f9uwGDs2SLdl5-1" value="return" style="html=1;verticalAlign=bottom;endArrow=open;dashed=1;endSize=8;rounded=0;entryX=0.462;entryY=0.406;entryDx=0;entryDy=0;entryPerimeter=0;" edge="1" parent="1" target="hCBLbBsB73LEwu_Nen_G-7">
          <mxGeometry relative="1" as="geometry">
            <mxPoint x="870.25" y="400" as="sourcePoint" />
            <mxPoint x="630" y="400" as="targetPoint" />
          </mxGeometry>
        </mxCell>
        <mxCell id="kYCmp84f9uwGDs2SLdl5-2" value="return" style="html=1;verticalAlign=bottom;endArrow=open;dashed=1;endSize=8;rounded=0;" edge="1" parent="1" source="hCBLbBsB73LEwu_Nen_G-7">
          <mxGeometry relative="1" as="geometry">
            <mxPoint x="610.25" y="440" as="sourcePoint" />
            <mxPoint x="349.75" y="440" as="targetPoint" />
          </mxGeometry>
        </mxCell>
        <mxCell id="kYCmp84f9uwGDs2SLdl5-3" value="return" style="html=1;verticalAlign=bottom;endArrow=open;dashed=1;endSize=8;rounded=0;" edge="1" parent="1">
          <mxGeometry relative="1" as="geometry">
            <mxPoint x="350.25" y="490" as="sourcePoint" />
            <mxPoint x="89.75" y="490" as="targetPoint" />
          </mxGeometry>
        </mxCell>
      </root>
    </mxGraphModel>
  </diagram>
</mxfile>
